<?xml version="1.0" encoding="UTF-8" standalone="no"?>
<!-- Created with Inkscape (http://www.inkscape.org/) -->

<svg
   xmlns:dc="http://purl.org/dc/elements/1.1/"
   xmlns:cc="http://creativecommons.org/ns#"
   xmlns:rdf="http://www.w3.org/1999/02/22-rdf-syntax-ns#"
   xmlns:svg="http://www.w3.org/2000/svg"
   xmlns="http://www.w3.org/2000/svg"
   xmlns:sodipodi="http://sodipodi.sourceforge.net/DTD/sodipodi-0.dtd"
   xmlns:inkscape="http://www.inkscape.org/namespaces/inkscape"
   width="145.60881mm"
   height="124.05045mm"
   viewBox="0 0 515.93673 439.54885"
   id="svg2"
   version="1.1"
   inkscape:version="0.91 r13725"
   sodipodi:docname="quotesm.svg"
   inkscape:export-filename="C:\Users\Александр\Desktop\bitmap.png"
   inkscape:export-xdpi="90"
   inkscape:export-ydpi="90">
  <defs
     id="defs4">
    <inkscape:path-effect
       effect="spiro"
       id="path-effect5011"
       is_visible="true" />
  </defs>
  <sodipodi:namedview
     id="base"
     pagecolor="#ffffff"
     bordercolor="#666666"
     borderopacity="1.0"
     inkscape:pageopacity="0.0"
     inkscape:pageshadow="2"
     inkscape:zoom="0.93218855"
     inkscape:cx="16.365979"
     inkscape:cy="157.77955"
     inkscape:document-units="px"
     inkscape:current-layer="layer1"
     showgrid="true"
     inkscape:window-width="1920"
     inkscape:window-height="1178"
     inkscape:window-x="-8"
     inkscape:window-y="-8"
     inkscape:window-maximized="1"
     showguides="true"
     fit-margin-top="0"
     fit-margin-left="0"
     fit-margin-right="0"
     fit-margin-bottom="0"
     units="mm">
    <inkscape:grid
       type="xygrid"
       id="grid3344"
       spacingy="20"
       spacingx="20"
       empspacing="5"
       originx="-473.4929"
       originy="-964.55703"
       enabled="true" />
  </sodipodi:namedview>
  <metadata
     id="metadata7">
    <rdf:RDF>
      <cc:Work
         rdf:about="">
        <dc:format>image/svg+xml</dc:format>
        <dc:type
           rdf:resource="http://purl.org/dc/dcmitype/StillImage" />
        <dc:title></dc:title>
      </cc:Work>
    </rdf:RDF>
  </metadata>
  <g
     inkscape:label="Layer 1"
     inkscape:groupmode="layer"
     id="layer1"
     transform="translate(-473.49289,351.74364)">
    <path
       style="fill:#808080"
       d="m 491.70261,66.57621 c -12.213,-12.212985 -17.9274,-71.6456345 -17.9274,-172.16782 0,-151.7363 -6.1332,-166.34392 38.7732,-211.2503 30.9307,-30.93071 95.65757,-36.07602 126.00467,-34.70338 30.3472,1.37264 31.24449,2.32291 31.23097,33.93724 -0.017,39.74875 2.61079,40.78097 -26.98821,40.78097 -47.3331,0 -93.83243,36.28805 -87.11043,83.70619 4.0959,28.89294 13.4881,37.59102 57.3092,41.74884 30.4444,2.88861 67.5067,1.93992 78.4271,11.0031 25.4277,21.10302 21.7932,181.716276 -3.4357,206.94516 -24.6531,24.6531 -171.6303,24.6531 -196.2834,0 z"
       id="path3378"
       inkscape:connector-curvature="0"
       sodipodi:nodetypes="sssssssssss" />
    <path
       style="fill:#808080"
       d="m 772.33993,69.315375 c -12.213,-12.21299 -17.9274,-71.6456429 -17.9274,-172.167835 0,-151.73629 -6.1332,-166.34391 38.7732,-211.25029 30.9307,-30.93071 95.65757,-36.07602 126.00467,-34.70338 30.3472,1.37264 31.24449,2.32291 31.23097,33.93724 -0.017,39.74875 2.61079,40.78097 -26.98821,40.78097 -47.3331,0 -93.83243,36.28805 -87.11043,83.70619 4.0959,28.89293 13.4881,37.59101 57.3092,41.74883 30.4444,2.88861 67.5067,1.93992 78.4271,11.0031 25.42769,21.10302 21.7932,181.716285 -3.4357,206.945175 -24.6531,24.653105 -171.6303,24.653105 -196.2834,0 z"
       id="path3378-6"
       inkscape:connector-curvature="0"
       sodipodi:nodetypes="sssssssssss" />
  </g>
</svg>
